<svg version="1.1" id="Layer_1" xmlns="http://www.w3.org/2000/svg" xmlns:xlink="http://www.w3.org/1999/xlink" x="0px" y="0px"
	 width="100%" viewBox="0 0 480 480" enable-background="new 0 0 480 480" xml:space="preserve">
<path fill="#000000" opacity="1.000000" stroke="none" 
	d="
M283.428009,261.552399 
	C247.594833,274.138794 211.320114,278.912933 174.058350,272.270966 
	C153.551468,268.615631 142.788254,256.820557 139.705017,236.136871 
	C138.819977,230.199554 138.109238,224.326553 139.452499,218.311569 
	C142.196014,206.026352 148.727112,201.669418 161.228653,204.147812 
	C175.984146,207.073074 189.964722,212.437851 203.977615,217.712952 
	C230.756317,227.793671 256.991028,239.333328 284.401306,247.719955 
	C286.468872,248.352570 288.538300,248.997925 290.640656,249.494141 
	C295.516022,250.644867 300.178589,253.165115 305.284393,249.259552 
	C311.608337,244.422195 316.646149,239.029770 317.772766,230.815170 
	C319.086395,221.237000 315.889435,212.730408 311.374817,204.606598 
	C308.215393,198.921265 304.492218,193.593750 300.240570,188.646103 
	C299.273926,187.521225 298.138489,186.139069 299.335785,184.654282 
	C300.543884,183.156097 302.140167,184.024857 303.435272,184.714005 
	C321.246094,194.191406 338.972931,203.805725 353.263153,218.475342 
	C357.506805,222.831650 361.093109,227.686646 362.211609,233.786911 
	C364.489807,246.211563 356.416901,255.472092 342.454681,257.391815 
	C330.001709,259.104004 317.908295,257.449982 305.917664,254.394211 
	C302.850433,253.612549 300.323212,253.685257 297.431152,255.269196 
	C293.070374,257.657501 288.355225,259.398895 283.428009,261.552399 
z"/>
<path fill="#000000" opacity="1.000000" stroke="none" 
	d="
M221.882416,133.241013 
	C212.590485,129.875809 203.537125,127.099808 194.308151,124.846260 
	C191.246429,124.098656 188.829773,124.727028 186.321243,126.354630 
	C173.896652,134.416077 169.947540,146.098526 174.956482,160.690125 
	C178.192368,170.116669 183.747314,178.208969 189.850876,185.975998 
	C191.092087,187.555450 193.642502,189.243805 191.728256,191.484085 
	C190.123474,193.362198 187.941116,191.622543 186.286697,190.727600 
	C171.767548,182.873230 157.481522,174.641830 144.754135,163.998917 
	C140.906387,160.781357 137.461639,157.191010 134.394852,153.205582 
	C129.202881,146.458405 126.477020,139.058899 129.969223,130.866531 
	C133.501419,122.580345 141.183975,120.077103 149.359451,118.707581 
	C161.281631,116.710442 172.892593,118.786438 184.408875,121.505836 
	C188.025421,122.359825 191.013550,122.000160 194.379608,120.354828 
	C214.929916,110.309853 236.752670,104.976234 259.467468,102.533203 
	C276.603394,100.690186 293.593567,100.356346 310.715668,102.590973 
	C336.324097,105.933174 348.908081,115.751663 352.229126,146.730026 
	C352.597046,150.161789 352.432159,153.777298 351.785522,157.168594 
	C349.383331,169.767319 342.412964,174.290955 329.860291,171.806519 
	C314.923035,168.850113 300.787292,163.364777 286.633331,157.986664 
	C265.155792,149.825790 243.993423,140.841064 221.882416,133.241013 
z"/>
<path fill="#000000" opacity="1.000000" stroke="none" 
	d="
M227.840591,331.215637 
	C222.583603,347.298248 208.275345,351.579803 188.933578,342.783325 
	C188.933578,346.600861 188.866760,350.186005 188.952118,353.767548 
	C189.039734,357.443939 188.712616,360.295807 183.726868,360.169708 
	C179.092911,360.052490 178.801956,357.470093 178.820816,353.937805 
	C178.904419,338.277618 178.812744,322.616302 178.936111,306.956604 
	C178.953629,304.734222 177.617508,301.484009 181.250183,300.731018 
	C184.504181,300.056549 187.943359,299.809784 189.275085,304.294067 
	C196.097748,300.408142 202.941360,298.592712 210.565109,300.440216 
	C222.465775,303.324158 228.333908,310.493958 228.354446,322.845367 
	C228.358871,325.500275 228.113388,328.155609 227.840591,331.215637 
M189.511459,318.470520 
	C189.354248,320.614868 188.979065,322.769440 189.078949,324.901733 
	C189.440216,332.613281 194.375977,337.666412 202.234863,338.587067 
	C209.455933,339.432983 215.759293,335.321289 217.884796,328.378510 
	C220.246078,320.665527 216.923111,312.527252 210.355728,309.938965 
	C202.080246,306.677429 193.852234,309.788422 189.511459,318.470520 
z"/>
<path fill="#000000" opacity="1.000000" stroke="none" 
	d="
M310.223572,329.998077 
	C310.226074,333.996857 310.375946,337.504700 310.173157,340.992065 
	C310.041779,343.250824 311.382935,346.584503 307.732086,347.129944 
	C304.621307,347.594696 300.727386,348.749054 300.009979,343.695953 
	C282.291504,349.676361 271.058411,347.756073 264.372009,337.837006 
	C258.640503,329.334534 259.283508,315.351868 265.752167,307.823853 
	C273.303528,299.035797 285.955444,297.601227 299.889465,304.098816 
	C300.886536,299.639069 304.405182,299.997833 307.616852,300.457550 
	C311.358124,300.993134 310.147308,304.252869 310.186432,306.504883 
	C310.319580,314.167297 310.227448,321.833649 310.223572,329.998077 
M290.842102,337.511261 
	C299.318848,333.675995 302.620636,325.483124 299.109802,316.996124 
	C296.423737,310.502838 287.531372,307.111389 279.942291,309.685791 
	C272.562897,312.189026 268.880707,320.166931 271.308014,328.392975 
	C273.512177,335.862762 281.685577,339.918427 290.842102,337.511261 
z"/>
<path fill="#000000" opacity="1.000000" stroke="none" 
	d="
M345.609375,303.192322 
	C350.867004,302.536163 355.286591,299.413910 360.853149,299.572357 
	C373.588074,299.934937 380.337799,306.383453 380.363373,319.017242 
	C380.379578,327.010803 380.248871,335.006958 380.419159,342.996918 
	C380.497894,346.691162 378.698914,347.409973 375.508575,347.428925 
	C372.233856,347.448364 370.585815,346.534454 370.666290,342.920715 
	C370.829407,335.597046 370.770142,328.266022 370.676056,320.939697 
	C370.572510,312.873230 366.308105,308.414429 358.927063,308.452118 
	C351.299103,308.491089 345.459473,314.027527 345.364105,321.470520 
	C345.272400,328.630341 345.196167,335.795471 345.377228,342.951569 
	C345.469177,346.585205 343.833588,347.501373 340.558258,347.435822 
	C337.449219,347.373535 334.954224,347.288300 334.974792,343.105530 
	C335.064148,324.953949 335.056152,306.801544 334.987640,288.649811 
	C334.972931,284.747223 337.099609,283.997986 340.409027,283.959839 
	C343.961426,283.918915 345.570343,285.144348 345.397034,288.919525 
	C345.183594,293.568756 345.421692,298.238708 345.609375,303.192322 
z"/>
<path fill="#000000" opacity="1.000000" stroke="none" 
	d="
M134.070557,344.168091 
	C123.657898,336.675354 120.353294,324.478638 125.356323,313.029755 
	C129.515625,303.511658 142.117050,297.874420 154.159607,300.008087 
	C164.185104,301.784363 172.450485,305.986816 174.708893,316.792725 
	C176.737289,326.498138 175.922745,336.189026 167.057892,342.459076 
	C156.840820,349.685547 145.615921,349.361572 134.070557,344.168091 
M133.607910,320.287964 
	C133.524216,321.778870 133.298203,323.277740 133.380676,324.759369 
	C133.810043,332.471375 138.875076,337.474365 147.245682,338.558075 
	C155.358109,339.608337 162.664612,335.411499 164.713531,328.524536 
	C167.273407,319.920074 163.842850,312.714752 155.909500,310.033234 
	C146.175690,306.743134 137.149414,310.627167 133.607910,320.287964 
z"/>
<path fill="#000000" opacity="1.000000" stroke="none" 
	d="
M89.679474,300.171875 
	C100.541763,299.415344 110.655632,299.727997 118.349243,309.175232 
	C114.167023,312.357300 110.932671,314.380676 106.077003,310.841431 
	C101.792984,307.718872 96.321716,307.735870 91.127876,308.714996 
	C89.046074,309.107452 86.600899,309.740356 86.390167,312.425568 
	C86.165291,315.291107 88.717094,315.939880 90.724998,316.415405 
	C96.220718,317.716980 101.838058,318.519104 107.309547,319.904785 
	C112.314362,321.172302 117.464279,322.632111 119.940041,327.897369 
	C122.384369,333.095764 120.335419,339.551758 115.272324,343.384094 
	C106.432770,350.074829 87.416153,349.685303 78.930618,342.606018 
	C77.143829,341.115387 75.429581,339.521973 74.949707,337.095917 
	C79.153099,332.778809 81.045815,332.730408 85.790817,335.579620 
	C92.342293,339.513550 99.351906,339.677368 106.419609,336.944855 
	C108.171021,336.267700 109.704262,335.141022 109.662155,332.957611 
	C109.619438,330.742188 108.048576,329.705322 106.190224,329.255493 
	C101.835510,328.201385 97.452217,327.256500 93.059845,326.369690 
	C89.465439,325.643951 85.926453,324.779999 82.528641,323.368530 
	C78.160591,321.554108 75.219437,318.471771 75.115807,313.649353 
	C75.006828,308.577881 77.430229,304.640930 82.141808,302.517578 
	C84.391396,301.503723 86.874985,301.009094 89.679474,300.171875 
z"/>
<path fill="#000000" opacity="1.000000" stroke="none" 
	d="
M249.383743,301.828766 
	C252.290405,300.676453 254.939590,300.585999 257.614014,300.606842 
	C260.067078,300.625977 262.331482,300.640472 262.320496,304.129791 
	C262.311340,307.034058 262.143097,308.960388 258.327026,309.536102 
	C246.013519,311.393829 243.029114,315.244690 243.022980,327.877686 
	C243.020630,332.701385 242.855286,337.529297 243.009155,342.347473 
	C243.133438,346.238831 241.516830,347.483276 237.666382,347.506226 
	C233.525726,347.530914 232.641861,345.719025 232.684906,342.061798 
	C232.825836,330.087189 232.692215,318.109589 232.777740,306.133911 
	C232.791779,304.168884 231.868256,301.253113 235.002625,300.890778 
	C237.719971,300.576630 241.103409,299.177673 242.803680,303.090271 
	C242.972687,303.479248 243.508698,303.708710 244.050232,304.158142 
	C245.694794,303.426270 247.347855,302.690613 249.383743,301.828766 
z"/>
<path fill="#000000" opacity="1.000000" stroke="none" 
	d="
M397.217468,344.748352 
	C395.301453,348.987732 391.891418,347.379669 389.269043,347.041809 
	C386.501892,346.685272 387.597992,343.848572 387.586395,342.025360 
	C387.510986,330.195007 387.497223,318.363800 387.568817,306.533508 
	C387.581390,304.460327 386.009644,301.328430 389.588440,300.844360 
	C392.833069,300.405426 396.904266,299.253723 397.774719,304.927582 
	C402.648071,302.156433 407.442383,300.089325 413.025421,300.584778 
	C415.767151,300.828125 416.990234,301.894684 416.905884,304.563385 
	C416.830200,306.956757 416.874329,309.289673 413.399445,309.403870 
	C410.045868,309.514069 406.790710,310.367371 403.911987,312.184357 
	C399.674164,314.859131 397.315155,318.649689 397.318176,323.780060 
	C397.322235,330.611786 397.287018,337.443481 397.217468,344.748352 
z"/>
<path fill="#000000" opacity="1.000000" stroke="none" 
	d="
M248.616379,384.364197 
	C246.524872,379.119110 244.562897,374.241699 242.600922,369.364288 
	C243.189941,369.026245 243.778961,368.688171 244.367981,368.350128 
	C250.849350,370.421783 248.814072,378.502563 253.222626,382.586853 
	C254.623550,379.037933 256.050537,375.431702 257.470367,371.822662 
	C258.161346,370.066284 258.904510,368.359558 261.235504,368.471558 
	C263.375885,368.574402 263.691284,370.365540 264.368561,371.865295 
	C265.860260,375.168488 266.569519,378.822784 268.795013,381.973480 
	C273.204834,378.467743 271.006409,370.223846 279.258850,367.865112 
	C277.027100,375.735687 274.565826,382.050079 271.260437,387.867920 
	C269.608673,390.775177 266.947601,389.515472 265.687317,386.605499 
	C264.183380,383.132996 262.819061,379.600067 260.945251,374.988251 
	C259.314850,378.784393 258.156158,381.626740 256.876343,384.413452 
	C255.960449,386.407867 255.921478,389.273346 252.688980,389.234039 
	C249.755310,389.198395 249.714951,386.538055 248.616379,384.364197 
z"/>
<path fill="#000000" opacity="1.000000" stroke="none" 
	d="
M174.664764,368.847229 
	C180.068359,372.190308 181.487991,375.705658 180.511688,381.596832 
	C179.631363,386.908905 176.112289,388.977325 171.299805,389.882904 
	C159.575912,392.088989 152.036499,385.566620 154.580063,375.419098 
	C155.476822,371.841492 157.519989,369.635559 161.043930,368.601135 
	C165.487411,367.296753 169.877350,367.423309 174.664764,368.847229 
M175.496826,382.972260 
	C177.282761,379.636688 177.037277,376.256592 174.299454,373.839661 
	C171.096680,371.012299 167.085678,370.957642 163.012421,372.222717 
	C159.518463,373.307831 158.454910,375.949829 158.466705,379.116608 
	C158.477997,382.147888 159.737717,384.672882 162.946457,385.555450 
	C167.262177,386.742523 171.467163,386.887054 175.496826,382.972260 
z"/>
<path fill="#000000" opacity="1.000000" stroke="none" 
	d="
M315.700439,383.815552 
	C315.704620,379.520630 315.761993,375.703491 315.696655,371.888397 
	C315.654114,369.402527 316.815216,368.273590 319.234619,368.104950 
	C323.069336,367.837677 326.904419,367.947662 330.615417,368.858002 
	C336.418945,370.281586 336.927032,376.072723 331.809509,381.793762 
	C331.827179,384.566376 335.454620,385.667938 335.148560,388.690796 
	C332.758942,390.062256 331.093018,389.063690 329.626953,387.150421 
	C328.620117,385.836395 327.684631,384.398773 326.434967,383.353973 
	C323.759399,381.117096 320.911346,382.050720 320.205414,385.262573 
	C319.866699,386.803619 320.288116,389.093903 317.923309,388.958374 
	C314.880981,388.784027 316.045166,386.061279 315.700439,383.815552 
M325.946259,378.492065 
	C328.089355,377.893127 331.261017,377.786957 330.508209,374.634247 
	C329.607269,370.861359 325.973328,372.457214 323.407898,372.232849 
	C321.145844,372.034973 320.204193,373.326324 320.227722,375.555511 
	C320.267029,379.273254 322.969025,378.444458 325.946259,378.492065 
z"/>
<path fill="#000000" opacity="1.000000" stroke="none" 
	d="
M132.325150,385.921906 
	C135.713440,385.661713 140.427094,387.479553 140.985291,383.876221 
	C141.545959,380.256958 136.666107,380.962708 133.997849,380.280273 
	C130.561554,379.401459 128.133118,377.723328 128.203873,373.908020 
	C128.271057,370.285095 130.737061,368.576965 133.960999,368.092438 
	C136.404861,367.725189 138.926514,367.803345 141.412811,367.816803 
	C142.990356,367.825317 144.659515,368.259583 144.391510,370.274445 
	C144.150330,372.087646 142.532639,371.708160 141.188919,371.628784 
	C138.150879,371.449402 134.866501,370.438934 132.635330,373.727966 
	C133.330231,376.341156 135.411362,376.395538 137.353500,376.728424 
	C139.805710,377.148682 142.382187,377.398743 144.288483,379.198914 
	C147.440002,382.175018 146.408203,387.296021 142.266907,389.104492 
	C138.800797,390.618073 135.095215,390.347473 131.439224,390.050964 
	C130.095886,389.942047 128.596008,389.602203 128.603577,387.874268 
	C128.613342,385.642212 130.423462,385.951111 132.325150,385.921906 
z"/>
<path fill="#000000" opacity="1.000000" stroke="none" 
	d="
M285.614319,381.617126 
	C287.607788,377.748962 289.313354,374.140015 291.316101,370.704315 
	C293.170898,367.522491 296.093536,367.351746 297.893066,370.473175 
	C301.188599,376.189636 304.516174,381.923828 306.914825,388.351227 
	C304.323975,389.993591 303.030487,388.897919 301.596802,386.885590 
	C298.913940,383.119934 290.627411,383.074005 287.831085,386.759064 
	C286.550201,388.447083 285.497437,390.042542 282.957642,388.712402 
	C282.507385,385.979950 284.638855,384.195770 285.614319,381.617126 
M292.646973,380.439728 
	C294.220093,380.559998 295.860413,381.168640 297.643127,379.484283 
	C296.976074,377.652985 296.564911,375.581360 294.440857,374.105042 
	C293.240784,376.201355 291.579559,377.704041 292.646973,380.439728 
z"/>
<path fill="#000000" opacity="1.000000" stroke="none" 
	d="
M351.975372,380.650513 
	C349.189789,384.029816 350.186432,385.417816 354.033936,385.810669 
	C356.880646,386.101349 360.306549,384.303711 363.200378,388.413513 
	C357.535370,389.972626 352.419678,389.550690 347.341888,388.824493 
	C346.094025,388.646057 345.949921,387.056244 345.940216,385.893188 
	C345.900055,381.069885 345.906128,376.245880 345.937103,371.422394 
	C345.948120,369.706665 346.811951,368.571960 348.561188,368.325531 
	C352.368835,367.789032 356.191833,367.889740 360.001099,368.281738 
	C360.998108,368.384338 361.966888,368.875427 361.934540,370.148621 
	C361.903564,371.367676 361.024048,371.921661 359.986053,372.008942 
	C358.166779,372.161957 356.329742,372.091370 354.505951,372.206787 
	C352.764923,372.316956 350.418060,371.844604 350.525726,374.648956 
	C350.619141,377.082825 352.770630,376.509766 354.337860,376.752899 
	C356.598328,377.103607 359.360718,375.724152 361.154175,378.682251 
	C358.610443,381.675720 355.167999,379.706543 351.975372,380.650513 
z"/>
<path fill="#000000" opacity="1.000000" stroke="none" 
	d="
M202.763397,372.258362 
	C200.987518,372.266205 199.655914,372.247345 198.325089,372.271729 
	C196.458237,372.305939 194.487244,372.227814 194.419113,374.918488 
	C194.351105,377.603027 196.228378,377.685486 198.159576,377.704407 
	C199.823074,377.720673 201.488937,377.710510 203.149002,377.799835 
	C204.707794,377.883728 205.680511,378.570435 205.285965,380.443817 
	C203.473907,382.048553 201.200378,381.349213 199.141846,381.305298 
	C195.871109,381.235596 194.055389,382.246552 194.280457,385.849701 
	C194.369522,387.275635 194.429886,389.158295 192.187592,389.033722 
	C190.108749,388.918213 190.182068,387.090149 190.119308,385.642761 
	C190.011261,383.150940 189.874588,380.633484 190.107605,378.160492 
	C190.406815,374.985382 188.406769,370.652100 191.762131,368.914917 
	C195.723404,366.864075 200.554871,367.897491 205.017426,368.376068 
	C206.055878,368.487457 206.998047,369.199005 206.783752,370.385437 
	C206.419266,372.403229 204.643112,372.080261 202.763397,372.258362 
z"/>
<path fill="#000000" opacity="1.000000" stroke="none" 
	d="
M223.123352,368.033966 
	C226.762726,368.062408 229.930756,368.021606 233.091721,368.152100 
	C234.385025,368.205536 235.960785,368.363953 235.933929,370.224152 
	C235.912064,371.738678 234.595871,372.220490 233.451157,372.065643 
	C226.911346,371.180695 227.059174,375.388702 227.317307,379.834045 
	C227.432999,381.826324 227.378845,383.834534 227.290161,385.830566 
	C227.226334,387.266998 227.455521,389.139435 225.195526,389.032288 
	C223.099121,388.932892 223.154236,387.135101 223.114456,385.670380 
	C223.033051,382.673157 222.885239,379.656799 223.125946,376.677490 
	C223.379517,373.539032 222.529678,371.963318 219.074249,372.154419 
	C217.460510,372.243713 214.779694,372.932404 214.822144,370.171417 
	C214.861832,367.589691 217.458755,368.260010 219.152664,368.066711 
	C220.304428,367.935242 221.482742,368.036499 223.123352,368.033966 
z"/>
</svg>